<svg width="20" height="20" viewBox="0 0 20 20" fill="none" xmlns="http://www.w3.org/2000/svg">
<path fill-rule="evenodd" clip-rule="evenodd" d="M10 0C12.762 0 15.262 1.11979 17.0703 2.92969C18.8802 4.73958 20 7.23958 20 10C20 12.762 18.8802 15.262 17.0703 17.0703C15.2604 18.8802 12.7604 20 10 20C7.23958 20 4.73796 18.8802 2.92969 17.0703C1.11979 15.262 0 12.762 0 10C0 7.23796 1.11979 4.73796 2.92969 2.92969C4.73796 1.11979 7.23796 0 10 0ZM12.5081 19.056L12.4886 19.043L13.61 15.2848L11.2972 12.7197L8.57096 12.6953L6.40951 15.4004L7.49349 19.0332L7.46908 19.0495C8.27474 19.2741 9.12272 19.3945 10 19.3945C10.8691 19.3945 11.7106 19.2773 12.5081 19.056ZM1.98893 14.9105L5.95052 14.93L8.02083 12.3372L7.16471 9.71354L3.67839 8.19987L0.615234 10.4297C0.688477 12.0671 1.18164 13.5954 1.98893 14.9105ZM2.72949 4.04948L3.93392 7.653L7.18587 9.06576L9.69889 7.11751V3.4082L6.59342 1.24186C5.36947 1.71875 4.26921 2.44466 3.35612 3.35775C3.13639 3.57747 2.92643 3.80859 2.72949 4.04948ZM13.2975 1.19954L10.3027 3.38053V7.11263L12.6628 8.93717L16.0498 7.48535L17.2184 3.98763C17.0361 3.7679 16.8441 3.55794 16.6423 3.35612C15.7031 2.41699 14.5654 1.6748 13.2975 1.19954ZM19.3831 10.4753L19.3799 10.4769L16.1279 8.10872L12.9036 9.49056L11.9141 12.4251L14.1488 14.904C14.1585 14.9137 14.1634 14.9251 14.1667 14.9382L18.0078 14.9202C18.8086 13.6149 19.3018 12.0996 19.3831 10.4753Z" fill="#e2e2e2"/>
</svg>
