<svg width="36" height="36" viewBox="0 0 36 36" fill="none" xmlns="http://www.w3.org/2000/svg">
<g clip-path="url(#clip0_25_61)">
<path d="M18 0C8.05781 0 0 8.05781 0 18C0 27.9422 8.05781 36 18 36C27.9422 36 36 27.9422 36 18C36 8.05781 27.9422 0 18 0ZM29.2359 29.2289C27.7734 30.6914 26.0789 31.8375 24.1875 32.632C22.2328 33.4617 20.1516 33.8766 18 33.8766C15.8555 33.8766 13.7742 33.4547 11.8125 32.632C9.92109 31.8305 8.21953 30.6844 6.76406 29.2289C5.30156 27.7664 4.15547 26.0719 3.36094 24.1805C2.53125 22.2258 2.10938 20.1445 2.10938 18C2.10938 15.8555 2.53125 13.7742 3.35391 11.8125C4.15547 9.92109 5.30156 8.21953 6.75703 6.76406C8.22656 5.30156 9.92109 4.15547 11.8125 3.35391C13.7742 2.53125 15.8555 2.10938 18 2.10938C20.1445 2.10938 22.2258 2.53125 24.1875 3.35391C26.0789 4.15547 27.7805 5.30156 29.2359 6.75703C30.6984 8.21953 31.8445 9.91406 32.6391 11.8055C33.4688 13.7602 33.8836 15.8414 33.8836 17.993C33.8836 20.1375 33.4617 22.2188 32.6391 24.1805C31.8375 26.0719 30.6914 27.7734 29.2359 29.2289Z" fill="#BEBEBE"/>
<path d="M20.3767 11.8617C21.1009 11.8617 21.8743 12.0867 21.8743 12.0867L22.3384 9.33042C22.3384 9.33042 21.354 8.99292 19.0056 8.99292C17.5642 8.99292 16.7274 9.54136 16.1157 10.35C15.5392 11.1164 15.5181 12.3468 15.5181 13.1414V14.9484H13.6548V17.6414H15.5181V26.9929H19.0056V17.6414H21.7688L21.9728 14.9484H19.0056V12.846C19.0056 12.1218 19.6524 11.8617 20.3767 11.8617Z" fill="#BEBEBE"/>
</g>
<defs>
<clipPath id="clip0_25_61">
<rect width="36" height="36" fill="white"/>
</clipPath>
</defs>
</svg>
