<svg width="36" height="36" viewBox="0 0 36 36" fill="none" xmlns="http://www.w3.org/2000/svg">
<g clip-path="url(#clip0_25_56)">
<path d="M18 0C8.05781 0 0 8.05781 0 18C0 27.9422 8.05781 36 18 36C27.9422 36 36 27.9422 36 18C36 8.05781 27.9422 0 18 0ZM29.2359 29.2289C27.7734 30.6914 26.0789 31.8375 24.1875 32.632C22.2328 33.4617 20.1516 33.8766 18 33.8766C15.8555 33.8766 13.7742 33.4547 11.8125 32.632C9.92109 31.8305 8.21953 30.6844 6.76406 29.2289C5.30156 27.7664 4.15547 26.0719 3.36094 24.1805C2.53125 22.2258 2.10938 20.1445 2.10938 18C2.10938 15.8555 2.53125 13.7742 3.35391 11.8125C4.15547 9.92109 5.30156 8.21953 6.75703 6.76406C8.22656 5.30156 9.92109 4.15547 11.8125 3.35391C13.7742 2.53125 15.8555 2.10938 18 2.10938C20.1445 2.10938 22.2258 2.53125 24.1875 3.35391C26.0789 4.15547 27.7805 5.30156 29.2359 6.75703C30.6984 8.21953 31.8445 9.91406 32.6391 11.8055C33.4688 13.7602 33.8836 15.8414 33.8836 17.993C33.8836 20.1375 33.4617 22.2188 32.6391 24.1805C31.8375 26.0719 30.6914 27.7734 29.2359 29.2289Z" fill="#BEBEBE"/>
<path d="M23.5266 9H12.4875C10.568 9 9.00708 10.5609 9.00708 12.4805V16.1578V23.5266C9.00708 25.4461 10.568 27.007 12.4875 27.007H23.5266C25.4461 27.007 27.0071 25.4461 27.0071 23.5266V16.1508V12.4734C27 10.5609 25.4391 9 23.5266 9ZM24.525 11.0742H24.9258V11.468V14.1258L21.8813 14.1328L21.8743 11.0813L24.525 11.0742ZM15.4336 16.1508C16.0102 15.3563 16.9454 14.8289 18 14.8289C19.0547 14.8289 19.9899 15.3492 20.5665 16.1508C20.9461 16.6711 21.1641 17.3109 21.1641 18C21.1641 19.7437 19.7438 21.1711 17.993 21.1711C16.2422 21.1711 14.836 19.7437 14.836 18C14.836 17.3109 15.061 16.6711 15.4336 16.1508ZM25.2493 23.5195C25.2493 24.4688 24.4758 25.2422 23.5266 25.2422H12.4875C11.5383 25.2422 10.7649 24.4688 10.7649 23.5195V16.1508H13.4508C13.2188 16.7203 13.0852 17.3461 13.0852 18C13.0852 20.7141 15.293 22.9219 18.0071 22.9219C20.7211 22.9219 22.929 20.7141 22.929 18C22.929 17.3461 22.7954 16.7203 22.5633 16.1508H25.2493V23.5195Z" fill="#BEBEBE"/>
</g>
<defs>
<clipPath id="clip0_25_56">
<rect width="36" height="36" fill="white"/>
</clipPath>
</defs>
</svg>
