<svg width="34" height="34" viewBox="0 0 34 34" fill="none" xmlns="http://www.w3.org/2000/svg">
<path fill-rule="evenodd" clip-rule="evenodd" d="M33.1701 0.82987C34.2766 1.93636 34.2766 3.73035 33.1701 4.83684L4.83685 33.1701C3.73035 34.2766 1.93637 34.2766 0.829873 33.1701C-0.276623 32.0636 -0.276624 30.2697 0.829871 29.1632L29.1632 0.829872C30.2696 -0.276623 32.0636 -0.276624 33.1701 0.82987Z" fill="white"/>
<path fill-rule="evenodd" clip-rule="evenodd" d="M0.829864 0.829875C1.93635 -0.276622 3.73033 -0.276625 4.83682 0.829867L33.1701 29.1632C34.2766 30.2696 34.2766 32.0636 33.1701 33.1701C32.0636 34.2766 30.2697 34.2766 29.1632 33.1701L0.829872 4.83685C-0.276621 3.73035 -0.276625 1.93637 0.829864 0.829875Z" fill="white"/>
</svg>
