<svg width="40" height="30" viewBox="0 0 40 30" fill="none" xmlns="http://www.w3.org/2000/svg">
<path fill-rule="evenodd" clip-rule="evenodd" d="M0 2.5C0 1.11929 1.11929 0 2.5 0H37.5C38.8807 0 40 1.11929 40 2.5C40 3.88071 38.8807 5 37.5 5H2.5C1.11929 5 0 3.88071 0 2.5ZM0 15C0 13.6193 1.11929 12.5 2.5 12.5H37.5C38.8807 12.5 40 13.6193 40 15C40 16.3807 38.8807 17.5 37.5 17.5H2.5C1.11929 17.5 0 16.3807 0 15ZM17.5 27.5C17.5 26.1193 18.6193 25 20 25H37.5C38.8807 25 40 26.1193 40 27.5C40 28.8807 38.8807 30 37.5 30H20C18.6193 30 17.5 28.8807 17.5 27.5Z" fill="white"/>
</svg>
