<svg width="37" height="37" viewBox="0 0 37 37" fill="none" xmlns="http://www.w3.org/2000/svg">
<g clip-path="url(#clip0_25_51)">
<path d="M17.9989 0.202199C8.0573 0.313826 0.0904706 8.4616 0.202098 18.4032C0.313726 28.3447 8.4615 36.3116 18.4031 36.1999C28.3446 36.0883 36.3115 27.9405 36.1998 17.999C36.0882 8.0574 27.9404 0.0905709 17.9989 0.202199ZM29.5623 29.3031C28.1163 30.7819 26.4347 31.947 24.5524 32.7627C22.6071 33.6143 20.5306 34.0525 18.3792 34.0766C16.2348 34.1007 14.149 33.7022 12.1781 32.9016C10.2779 32.1214 8.56353 30.9945 7.09181 29.5554C5.61298 28.1094 4.44793 26.4279 3.63222 24.5455C2.78063 22.6003 2.33542 20.5239 2.31134 18.3795C2.28726 16.2351 2.68574 14.1492 3.48632 12.1784C4.2666 10.2781 5.39351 8.56379 6.83255 7.09207C8.28557 5.61316 9.96712 4.44811 11.8494 3.62536C13.8018 2.78073 15.8782 2.33552 18.0225 2.31144C20.1669 2.28736 22.2528 2.68584 24.2236 3.48642C26.1239 4.2667 27.8382 5.39362 29.31 6.83265C30.7888 8.27864 31.9538 9.96019 32.7696 11.8426C33.6211 13.7878 34.0593 15.8643 34.0835 18.0157C34.1076 20.1601 33.7091 22.2459 32.9085 24.2168C32.1282 26.1171 31.0013 27.8314 29.5623 29.3031Z" fill="#BEBEBE"/>
<path d="M24.0289 11.8212L12.2312 11.9537C12.2312 11.9537 9.13062 11.9885 9.16543 15.0891L9.23766 21.5223C9.23766 21.5223 9.27248 24.6229 12.3731 24.5881L24.1708 24.4556C24.1708 24.4556 27.2713 24.4208 27.2365 21.3202L27.1643 14.887C27.1643 14.887 27.1295 11.7864 24.0289 11.8212ZM15.8424 21.6942L15.7646 14.7689L21.6953 18.1689L15.8424 21.6942Z" fill="#BEBEBE"/>
</g>
<defs>
<clipPath id="clip0_25_51">
<rect width="36" height="36" fill="white" transform="translate(0 0.404297) rotate(-0.643312)"/>
</clipPath>
</defs>
</svg>
